<svg width="32" height="32" viewBox="0 0 32 32" fill="none" xmlns="http://www.w3.org/2000/svg">
<path d="M15.9111 15.3778C18.3111 15.3778 20.1778 13.4222 20.1778 11.0222C20.1778 8.62222 18.2222 6.75555 15.8222 6.75555C13.4222 6.75555 11.5555 8.71111 11.5555 11.0222C11.5555 13.4222 13.5111 15.3778 15.9111 15.3778ZM15.8222 8.53333C15.9111 8.53333 15.9111 8.53333 15.8222 8.53333C17.2444 8.53333 18.4 9.68889 18.4 11.1111C18.4 12.5333 17.2444 13.6 15.8222 13.6C14.4 13.6 13.3333 12.4444 13.3333 11.1111C13.3333 9.68889 14.4889 8.53333 15.8222 8.53333Z" fill="white"/>
<path d="M29.0666 14.8445C27.3778 13.3333 25.1555 12.5333 22.8444 12.6222H22.1333C21.9555 13.3333 21.6889 13.9556 21.3333 14.4889C21.8666 14.4 22.3111 14.4 22.8444 14.4C24.5333 14.3111 26.2222 14.8444 27.5555 15.8222V22.2222H29.3333V15.1111L29.0666 14.8445Z" fill="white"/>
<path d="M20.8 6.93335C21.2444 5.86668 22.4889 5.33335 23.6444 5.77779C24.7111 6.22223 25.2444 7.46668 24.8 8.62223C24.4444 9.42224 23.6444 9.95557 22.8444 9.95557C22.6667 9.95557 22.4 9.95557 22.2222 9.86668C22.3111 10.3111 22.3111 10.7556 22.3111 11.1111V11.6445C22.4889 11.6445 22.6667 11.7333 22.8444 11.7333C25.0667 11.7333 26.8444 9.95557 26.8444 7.82224C26.8444 5.60001 25.0667 3.82224 22.9333 3.82224C21.5111 3.82224 20.2667 4.53335 19.5555 5.77779C20 6.04446 20.4444 6.40001 20.8 6.93335Z" fill="white"/>
<path d="M10.6667 14.5778C10.3111 14.0444 10.0445 13.4222 9.86669 12.7111H9.15558C6.84447 12.6222 4.62224 13.4222 2.93335 14.8444L2.66669 15.1111V22.2222H4.44446V15.8222C5.86669 14.8444 7.46669 14.3111 9.15558 14.4C9.68891 14.4 10.2222 14.4889 10.6667 14.5778Z" fill="white"/>
<path d="M9.15555 11.6444C9.33332 11.6444 9.5111 11.6444 9.68888 11.5556V11.0222C9.68888 10.5778 9.68888 10.1333 9.77777 9.77778C9.59999 9.86667 9.33332 9.86667 9.15555 9.86667C7.99999 9.86667 7.02221 8.88889 7.02221 7.73334C7.02221 6.57778 7.99999 5.6 9.15555 5.6C10.0444 5.6 10.8444 6.13334 11.2 6.93334C11.5555 6.48889 12.0889 6.04445 12.5333 5.68889C11.3778 3.82223 8.97777 3.2 7.1111 4.35556C5.24444 5.51111 4.62221 7.91111 5.77777 9.77778C6.48888 10.9333 7.73332 11.6444 9.15555 11.6444Z" fill="white"/>
<path d="M23.2 20.1778L23.0222 19.9111C21.2445 17.9555 18.7556 16.8 16.0889 16.8889C13.4222 16.8 10.8445 17.9555 9.06669 19.9111L8.88892 20.1778V26.9333C8.88892 27.7333 9.51114 28.4444 10.4 28.4444H21.7778C22.5778 28.4444 23.2889 27.7333 23.2889 26.9333V20.1778H23.2ZM21.4222 26.6667H10.6667V20.8C12.0889 19.3778 14.0445 18.6667 16.0889 18.6667C18.0445 18.5778 20 19.3778 21.4222 20.8V26.6667Z" fill="white"/>
</svg>
