<svg width="103" height="103" viewBox="0 0 103 103" fill="none" xmlns="http://www.w3.org/2000/svg">
<g clip-path="url(#clip0)">
<path d="M52.0166 50.0918C56.9108 52.9175 63.0198 51.1274 65.8454 46.2332C68.671 41.3391 66.8809 35.2301 61.9868 32.4045C57.0926 29.5788 50.9837 31.3689 48.2627 36.0818C45.437 40.976 47.1225 47.2662 52.0166 50.0918ZM59.8937 36.0298C60.075 36.1344 60.075 36.1344 59.8937 36.0298C62.7939 37.7042 63.7899 41.4212 62.1154 44.3214C60.441 47.2217 56.8287 48.0363 53.9284 46.3619C51.0282 44.6874 50.2135 41.0751 51.7833 38.3562C53.4578 35.4559 57.1747 34.46 59.8937 36.0298Z" fill="#31326C" fill-opacity="0.2"/>
<path d="M79.4718 64.493C77.8069 59.4231 74.2171 55.1753 69.3996 52.6356L67.9495 51.7984C66.7497 53.0392 65.4733 53.9941 64.1204 54.6631C65.3126 55.1097 66.2189 55.633 67.3065 56.2609C70.8552 58.0681 73.6713 61.1441 75.2391 64.7078L67.7041 77.7589L71.3294 79.8519L79.7017 65.3507L79.4718 64.493Z" fill="#31326C" fill-opacity="0.2"/>
<path d="M71.9283 38.6276C74.0905 36.9757 77.2561 37.3532 79.0893 39.6201C80.7412 41.7822 80.3636 44.9479 78.0968 46.781C76.4299 47.9938 74.1706 48.1395 72.5392 47.1976C72.1767 46.9883 71.6329 46.6744 71.375 46.2838C71.033 47.2948 70.5097 48.2011 70.0911 48.9262L69.4632 50.0138C69.8257 50.2231 70.0836 50.6136 70.4461 50.823C74.9777 53.4393 80.6961 51.9071 83.2078 47.5567C85.8241 43.0251 84.2919 37.3067 79.9415 34.795C77.0413 33.1206 73.6664 33.1055 70.7511 34.806C71.3435 35.8731 71.8312 37.1214 71.9283 38.6276Z" fill="#31326C" fill-opacity="0.2"/>
<path d="M42.2639 42.2859C42.1667 40.7797 42.3555 39.1969 42.8302 37.5375L41.3801 36.7002C36.7719 33.798 31.2983 32.813 26.1798 33.7248L25.3221 33.9547L16.9498 48.4559L20.5751 50.549L28.1102 37.4979C32.1616 37.1784 36.0523 37.9746 39.3917 40.1443C40.4793 40.7722 41.4622 41.5814 42.2639 42.2859Z" fill="#31326C" fill-opacity="0.2"/>
<path d="M42.6359 34.5251C42.9985 34.7344 43.361 34.9437 43.8282 34.9717L44.4561 33.8841C44.9794 32.9778 45.5026 32.0715 46.1025 31.4511C45.6353 31.423 45.0915 31.1091 44.729 30.8997C42.3726 29.5393 41.5298 26.3941 42.8903 24.0377C44.2508 21.6813 47.3959 20.8385 49.7524 22.199C51.565 23.2456 52.5685 25.275 52.3517 27.325C53.6 26.8373 55.2109 26.5589 56.5358 26.3571C56.3771 21.1901 52.2155 17.0956 47.0484 17.2543C41.8814 17.413 37.7869 21.5746 37.9456 26.7416C38.0352 29.9353 39.7357 32.8506 42.6359 34.5251Z" fill="#31326C" fill-opacity="0.2"/>
<path d="M61.2291 68.4618L61.1805 67.7087C59.8576 61.6277 56.1427 56.341 50.6001 53.3827C45.2668 50.0618 38.6496 49.3833 32.7219 51.2781L32.0454 51.6125L24.0917 65.3887C23.1499 67.0201 23.5815 69.2028 25.3941 70.2493L48.5961 83.645C50.2275 84.5868 52.5148 83.9739 53.4567 82.3426L61.4104 68.5664L61.2291 68.4618ZM49.9641 79.601L28.031 66.938L34.9381 54.9745C39.5128 53.7487 44.3379 54.6009 48.507 57.008C52.5995 59.1291 55.6454 63.0628 56.8712 67.6375L49.9641 79.601Z" fill="#31326C" fill-opacity="0.2"/>
</g>
<defs>
<clipPath id="clip0">
<rect width="75.3505" height="75.3505" fill="white" transform="translate(37.6752) rotate(30)"/>
</clipPath>
</defs>
</svg>
