<svg width="32" height="32" viewBox="0 0 32 32" fill="none" xmlns="http://www.w3.org/2000/svg">
<path fill-rule="evenodd" clip-rule="evenodd" d="M5.97336 2.13333H5.8667C5.37816 2.13333 4.9579 2.13333 4.5867 2.2208C4.01205 2.35811 3.48664 2.65183 3.06868 3.06942C2.65072 3.487 2.35652 4.01215 2.2187 4.58666C2.13336 4.95786 2.13336 5.376 2.13336 5.86666V11.2C2.13336 11.6885 2.13336 12.1088 2.22083 12.48C2.35814 13.0546 2.65186 13.5801 3.06945 13.998C3.48703 14.416 4.01218 14.7102 4.5867 14.848C4.9579 14.9333 5.37603 14.9333 5.8667 14.9333H11.2C11.6886 14.9333 12.1088 14.9333 12.48 14.8459C13.0547 14.7086 13.5801 14.4148 13.998 13.9972C14.416 13.5797 14.7102 13.0545 14.848 12.48C14.9334 12.1088 14.9334 11.6907 14.9334 11.2V5.86666C14.9334 5.37813 14.9334 4.95786 14.8459 4.58666C14.7086 4.01202 14.4149 3.48661 13.9973 3.06865C13.5797 2.65069 13.0545 2.35649 12.48 2.21866C12.1088 2.13333 11.6907 2.13333 11.2 2.13333H5.97336ZM5.08376 4.29653C5.1755 4.2752 5.31843 4.26666 5.97336 4.26666H11.0934C11.7504 4.26666 11.8912 4.27306 11.983 4.29653C12.1746 4.34236 12.3498 4.44037 12.4891 4.5797C12.6285 4.71903 12.7265 4.89423 12.7723 5.08587C12.7936 5.17546 12.8 5.31626 12.8 5.97333V11.0933C12.8 11.7504 12.7936 11.8912 12.7702 11.9829C12.7243 12.1746 12.6263 12.3498 12.487 12.4891C12.3477 12.6284 12.1725 12.7264 11.9808 12.7723C11.8934 12.7915 11.7526 12.8 11.0934 12.8H5.97336C5.3163 12.8 5.1755 12.7936 5.08376 12.7701C4.89212 12.7243 4.71693 12.6263 4.5776 12.487C4.43827 12.3476 4.34026 12.1724 4.29443 11.9808C4.27523 11.8933 4.2667 11.7525 4.2667 11.0933V5.97333C4.2667 5.31626 4.2731 5.17546 4.29656 5.08373C4.34239 4.89209 4.4404 4.7169 4.57973 4.57757C4.71906 4.43824 4.89426 4.34023 5.0859 4.2944L5.08376 4.29653ZM20.9067 2.13333H20.8C20.3115 2.13333 19.8912 2.13333 19.52 2.2208C18.9454 2.35811 18.42 2.65183 18.002 3.06942C17.5841 3.487 17.2899 4.01215 17.152 4.58666C17.0667 4.95786 17.0667 5.376 17.0667 5.86666V11.2C17.0667 11.6885 17.0667 12.1088 17.1542 12.48C17.2915 13.0546 17.5852 13.5801 18.0028 13.998C18.4204 14.416 18.9455 14.7102 19.52 14.848C19.8912 14.9333 20.3094 14.9333 20.8 14.9333H26.1334C26.6219 14.9333 27.0422 14.9333 27.4134 14.8459C27.988 14.7086 28.5134 14.4148 28.9314 13.9972C29.3493 13.5797 29.6435 13.0545 29.7814 12.48C29.8667 12.1088 29.8667 11.6907 29.8667 11.2V5.86666C29.8667 5.37813 29.8667 4.95786 29.7792 4.58666C29.6419 4.01202 29.3482 3.48661 28.9306 3.06865C28.513 2.65069 27.9879 2.35649 27.4134 2.21866C27.0422 2.13333 26.624 2.13333 26.1334 2.13333H20.9067ZM20.0171 4.29653C20.1088 4.2752 20.2518 4.26666 20.9067 4.26666H26.0267C26.6838 4.26666 26.8246 4.27306 26.9163 4.29653C27.1079 4.34236 27.2831 4.44037 27.4225 4.5797C27.5618 4.71903 27.6598 4.89423 27.7056 5.08587C27.727 5.17546 27.7334 5.31626 27.7334 5.97333V11.0933C27.7334 11.7504 27.7248 11.8912 27.7035 11.9829C27.6577 12.1746 27.5597 12.3498 27.4203 12.4891C27.281 12.6284 27.1058 12.7264 26.9142 12.7723C26.8246 12.7936 26.6838 12.8 26.0267 12.8H20.9067C20.2496 12.8 20.1088 12.7936 20.0171 12.7701C19.8255 12.7243 19.6503 12.6263 19.5109 12.487C19.3716 12.3476 19.2736 12.1724 19.2278 11.9808C19.2086 11.8933 19.2 11.7525 19.2 11.0933V5.97333C19.2 5.31626 19.2064 5.17546 19.2299 5.08373C19.2757 4.89209 19.3737 4.7169 19.5131 4.57757C19.6524 4.43824 19.8276 4.34023 20.0192 4.2944L20.0171 4.29653ZM5.8667 17.0667H11.2C11.6886 17.0667 12.1088 17.0667 12.48 17.1541C13.0547 17.2914 13.5801 17.5852 13.998 18.0027C14.416 18.4203 14.7102 18.9455 14.848 19.52C14.9334 19.8912 14.9334 20.3093 14.9334 20.8V26.1333C14.9334 26.6219 14.9334 27.0421 14.8459 27.4133C14.7086 27.988 14.4149 28.5134 13.9973 28.9313C13.5797 29.3493 13.0545 29.6435 12.48 29.7813C12.1088 29.8667 11.6907 29.8667 11.2 29.8667H5.8667C5.37816 29.8667 4.9579 29.8667 4.5867 29.7792C4.01205 29.6419 3.48664 29.3482 3.06868 28.9306C2.65072 28.513 2.35652 27.9879 2.2187 27.4133C2.13336 27.0421 2.13336 26.624 2.13336 26.1333V20.8C2.13336 20.3115 2.13336 19.8912 2.22083 19.52C2.35814 18.9454 2.65186 18.4199 3.06945 18.002C3.48703 17.584 4.01218 17.2898 4.5867 17.152C4.9579 17.0667 5.37603 17.0667 5.8667 17.0667ZM5.97336 19.2C5.3163 19.2 5.1755 19.2064 5.08376 19.2299C4.89212 19.2757 4.71693 19.3737 4.5776 19.513C4.43827 19.6524 4.34026 19.8276 4.29443 20.0192C4.27523 20.1067 4.2667 20.2475 4.2667 20.9067V26.0267C4.2667 26.6837 4.2731 26.8245 4.29656 26.9163C4.34239 27.1079 4.4404 27.2831 4.57973 27.4224C4.71906 27.5618 4.89426 27.6598 5.0859 27.7056C5.1755 27.7269 5.3163 27.7333 5.97336 27.7333H11.0934C11.7504 27.7333 11.8912 27.7248 11.983 27.7035C12.1746 27.6576 12.3498 27.5596 12.4891 27.4203C12.6285 27.281 12.7265 27.1058 12.7723 26.9141C12.7936 26.8245 12.8 26.6837 12.8 26.0267V20.9067C12.8 20.2496 12.7936 20.1088 12.7702 20.0171C12.7243 19.8254 12.6263 19.6502 12.487 19.5109C12.3477 19.3716 12.1725 19.2736 11.9808 19.2277C11.8934 19.2085 11.7526 19.2 11.0934 19.2H5.97336ZM20.9067 17.0667H20.8C20.3115 17.0667 19.8912 17.0667 19.52 17.1541C18.9454 17.2914 18.42 17.5852 18.002 18.0027C17.5841 18.4203 17.2899 18.9455 17.152 19.52C17.0667 19.8912 17.0667 20.3093 17.0667 20.8V26.1333C17.0667 26.6219 17.0667 27.0421 17.1542 27.4133C17.2915 27.988 17.5852 28.5134 18.0028 28.9313C18.4204 29.3493 18.9455 29.6435 19.52 29.7813C19.8912 29.8688 20.3115 29.8688 20.8 29.8688H26.1334C26.6219 29.8688 27.0422 29.8688 27.4134 29.7813C27.9876 29.6437 28.5126 29.3498 28.9301 28.9322C29.3477 28.5147 29.6416 27.9897 29.7792 27.4155C29.8667 27.0443 29.8667 26.624 29.8667 26.1355V20.8C29.8667 20.3115 29.8667 19.8912 29.7792 19.52C29.6419 18.9454 29.3482 18.4199 28.9306 18.002C28.513 17.584 27.9879 17.2898 27.4134 17.152C27.0422 17.0667 26.624 17.0667 26.1334 17.0667H20.9067ZM20.0171 19.2299C20.1088 19.2085 20.2518 19.2 20.9067 19.2H26.0267C26.6838 19.2 26.8246 19.2064 26.9163 19.2299C27.1079 19.2757 27.2831 19.3737 27.4225 19.513C27.5618 19.6524 27.6598 19.8276 27.7056 20.0192C27.727 20.1088 27.7334 20.2496 27.7334 20.9067V26.0267C27.7334 26.6837 27.7248 26.8245 27.7035 26.9163C27.6577 27.1079 27.5597 27.2831 27.4203 27.4224C27.281 27.5618 27.1058 27.6598 26.9142 27.7056C26.8246 27.7269 26.6838 27.7333 26.0267 27.7333H20.9067C20.2496 27.7333 20.1088 27.7248 20.0171 27.7035C19.8255 27.6576 19.6503 27.5596 19.5109 27.4203C19.3716 27.281 19.2736 27.1058 19.2278 26.9141C19.2086 26.8267 19.2 26.6859 19.2 26.0267V20.9067C19.2 20.2496 19.2064 20.1088 19.2299 20.0171C19.2757 19.8254 19.3737 19.6502 19.5131 19.5109C19.6524 19.3716 19.8276 19.2736 20.0192 19.2277L20.0171 19.2299Z" fill="white"/>
</svg>
