<svg width="103" height="103" viewBox="0 0 103 103" fill="none" xmlns="http://www.w3.org/2000/svg">
<g clip-path="url(#clip0)">
<path d="M42.5296 38.0164L43.0915 38.3408C43.6546 37.0532 44.4159 35.8617 45.3477 34.8097C44.5799 34.5429 43.9016 34.0674 43.3889 33.4366C42.8762 32.8058 42.5494 32.0446 42.4452 31.2385C42.341 30.4323 42.4634 29.613 42.7988 28.8726C43.1342 28.1321 43.6693 27.4998 44.344 27.0465C45.0188 26.5931 45.8065 26.3368 46.6188 26.3062C47.4311 26.2755 48.2358 26.4718 48.9428 26.8731C49.6497 27.2743 50.2309 27.8645 50.6211 28.5776C51.0113 29.2907 51.1951 30.0984 51.1519 30.9102C52.4981 30.4447 53.9084 30.1908 55.3325 30.1577C55.2495 28.6775 54.7836 27.2441 53.9802 25.9981C53.1768 24.752 52.0637 23.7359 50.7496 23.0494C49.4356 22.3628 47.9658 22.0293 46.4841 22.0814C45.0025 22.1336 43.5598 22.5696 42.2972 23.3469C41.0347 24.1241 39.9957 25.2159 39.282 26.5154C38.5682 27.8148 38.2042 29.2774 38.2255 30.7598C38.2468 32.2422 38.6527 33.6937 39.4035 34.9721C40.1544 36.2505 41.2243 37.312 42.5087 38.0527L42.5296 38.0164Z" fill="#31326C" fill-opacity="0.2"/>
<path d="M42.2556 46.4865C41.9003 44.729 41.8943 42.9188 42.2378 41.1591L41.0958 40.4998C38.9887 39.1795 36.6327 38.3064 34.174 37.9346C31.7154 37.5628 29.2065 37.7002 26.8032 38.3384L26.0752 38.5948L18.7494 51.2833L22.3747 53.3764L28.8946 42.0836C32.4036 41.4927 36.0078 42.199 39.0342 44.0707C40.2003 44.7449 41.2817 45.5559 42.2556 46.4865Z" fill="#31326C" fill-opacity="0.2"/>
<path d="M75.2247 66.1979C74.588 63.8237 73.4711 61.6053 71.9431 59.6797C70.4152 57.7541 68.5086 56.1623 66.3412 55.0027C65.7612 54.6678 65.2536 54.3747 64.647 54.1695C63.2433 55.3738 61.6097 56.2807 59.8452 56.8352C61.3916 57.2176 62.8745 57.8214 64.2481 58.628C67.3645 60.2937 69.7669 63.0383 71.0053 66.3479L64.4435 77.7132L68.0688 79.8063L75.4574 67.009L75.2247 66.1979Z" fill="#31326C" fill-opacity="0.2"/>
<path d="M50.8977 51.8626C52.5002 52.7879 54.3411 53.2171 56.1876 53.0961C58.0341 52.975 59.8032 52.3092 61.2713 51.1827C62.7393 50.0562 63.8404 48.5197 64.4352 46.7675C65.03 45.0152 65.0918 43.126 64.6129 41.3386C64.134 39.5512 63.1358 37.9459 61.7445 36.7258C60.3533 35.5058 58.6315 34.7256 56.7969 34.4841C54.9623 34.2426 53.0972 34.5505 51.4376 35.3689C49.778 36.1873 48.3983 37.4795 47.4731 39.0821C46.2324 41.231 45.8962 43.7848 46.5384 46.1816C47.1807 48.5784 48.7487 50.6219 50.8977 51.8626ZM58.1501 39.301C59.0357 39.8122 59.7497 40.5746 60.2019 41.4916C60.6542 42.4087 60.8243 43.4393 60.6909 44.453C60.5574 45.4668 60.1263 46.4182 59.4521 47.1869C58.7779 47.9557 57.8909 48.5073 56.9033 48.7719C55.9156 49.0366 54.8716 49.0024 53.9034 48.6737C52.9352 48.345 52.0861 47.7366 51.4637 46.9254C50.8412 46.1142 50.4733 45.1366 50.4064 44.1163C50.3395 43.096 50.5767 42.0788 51.0879 41.1933C51.7735 40.0058 52.9027 39.1394 54.2271 38.7845C55.5516 38.4296 56.9627 38.6154 58.1501 39.301Z" fill="#31326C" fill-opacity="0.2"/>
<path d="M49.8361 54.7059C47.515 53.2544 44.9241 52.2878 42.2195 51.8644C39.5148 51.441 36.7525 51.5695 34.0988 52.2422L33.3526 52.4881L25.6815 65.7748C25.4719 66.1542 25.3394 66.5713 25.2916 67.0021C25.2439 67.4329 25.2818 67.8689 25.4033 68.285C25.5247 68.701 25.7273 69.089 25.9993 69.4264C26.2713 69.7639 26.6074 70.0442 26.9882 70.2512L47.7793 82.255C48.149 82.4813 48.5598 82.6322 48.9881 82.699C49.4163 82.7659 49.8536 82.7473 50.2746 82.6445C50.6957 82.5416 51.0923 82.3565 51.4415 82.0997C51.7907 81.843 52.0856 81.5197 52.3094 81.1484L60.0014 67.8254L59.8413 67.0563C59.1034 64.4244 57.8352 61.9712 56.1147 59.8474C54.3941 57.7236 52.2575 55.9739 49.8361 54.7059ZM49.1578 78.1929L29.7624 66.995L36.1044 56.0103C40.137 55.3527 44.2713 56.1771 47.7431 58.3312C51.3205 60.2393 54.084 63.3806 55.5207 67.172L49.1578 78.1929Z" fill="#31326C" fill-opacity="0.2"/>
<path d="M72.9165 49.3489C72.149 49.5342 71.3448 49.4986 70.5967 49.2462C69.8486 48.9939 69.1871 48.5352 68.6885 47.923C68.3933 48.8483 68.0003 49.7395 67.5162 50.5814C67.3003 51.0043 67.0628 51.4157 66.8045 51.814C67.1107 52.072 67.435 52.3077 67.775 52.5193C68.947 53.1907 70.2615 53.5744 71.6106 53.6391C72.9597 53.7038 74.305 53.4475 75.5358 52.8914C74.4995 51.8405 73.6176 50.6478 72.9165 49.3489Z" fill="#31326C" fill-opacity="0.2"/>
<path d="M72.0232 36.5797C70.5648 36.5819 69.1304 36.9505 67.8515 37.6515C68.496 38.9512 68.9314 40.3445 69.1416 41.7799C69.7051 41.3297 70.3707 41.0251 71.0797 40.8929C71.1877 39.4176 71.5054 37.9653 72.0232 36.5797Z" fill="#31326C" fill-opacity="0.2"/>
<path d="M81.4865 51.0824C86.492 53.9723 92.8925 52.2573 95.7824 47.2518C98.6724 42.2463 96.9573 35.8458 91.9518 32.9559C86.9463 30.066 80.5458 31.781 77.6559 36.7865C74.766 41.792 76.481 48.1925 81.4865 51.0824Z" fill="#31326C" fill-opacity="0.2"/>
</g>
<defs>
<clipPath id="clip0">
<rect width="75.3505" height="75.3505" fill="white" transform="translate(37.6753) rotate(30)"/>
</clipPath>
</defs>
</svg>
