<svg width="32" height="32" viewBox="0 0 32 32" fill="none" xmlns="http://www.w3.org/2000/svg">
<path d="M9.85779 12.9511H10.1333C10.067 12.358 10.094 11.7581 10.2133 11.1733C9.87429 11.2382 9.52385 11.2074 9.20134 11.0843C8.87884 10.9611 8.59702 10.7506 8.38751 10.4762C8.17799 10.2018 8.04907 9.87453 8.0152 9.53098C7.98132 9.18743 8.04384 8.84124 8.19574 8.53124C8.34764 8.22125 8.58291 7.9597 8.87516 7.77595C9.16741 7.5922 9.50507 7.49352 9.85028 7.49097C10.1955 7.48841 10.5346 7.5821 10.8295 7.7615C11.1244 7.94091 11.3635 8.19895 11.52 8.50667C11.9163 8.0496 12.3811 7.65678 12.8978 7.34222C12.553 6.81542 12.0772 6.38721 11.5172 6.09951C10.9571 5.81181 10.332 5.67449 9.70288 5.701C9.07382 5.72751 8.46242 5.91694 7.92856 6.25074C7.3947 6.58453 6.95668 7.05125 6.65739 7.6052C6.3581 8.15914 6.20781 8.78132 6.22122 9.4108C6.23464 10.0403 6.41131 10.6555 6.73392 11.1962C7.05654 11.7369 7.51405 12.1845 8.06165 12.4953C8.60925 12.806 9.22816 12.9692 9.85779 12.9689V12.9511Z" fill="white"/>
<path d="M11.5556 16.1244C11.0517 15.5535 10.6651 14.8891 10.4178 14.1689H9.85778C8.80245 14.1308 7.75055 14.3099 6.76734 14.6952C5.78414 15.0806 4.89062 15.6639 4.14223 16.4089L3.92889 16.6578V22.88H5.70667V17.3422C6.87176 16.3798 8.34728 15.8743 9.85778 15.92C10.4298 15.9204 10.9998 15.989 11.5556 16.1244Z" fill="white"/>
<path d="M27.8667 16.3733C27.1283 15.6353 26.2465 15.0566 25.2757 14.6728C24.3048 14.2891 23.2656 14.1085 22.2222 14.1422C21.9378 14.1422 21.6889 14.1422 21.4222 14.1956C21.1617 14.9365 20.7534 15.6169 20.2222 16.1956C20.8721 16.0078 21.5458 15.915 22.2222 15.92C23.7221 15.8709 25.1884 16.3702 26.3467 17.3244V22.8978H28.1245V16.6222L27.8667 16.3733Z" fill="white"/>
<path d="M15.8756 16.2667C16.6614 16.2667 17.4296 16.0336 18.083 15.597C18.7364 15.1604 19.2457 14.5399 19.5464 13.8139C19.8472 13.0878 19.9259 12.2889 19.7725 11.5182C19.6192 10.7474 19.2408 10.0394 18.6851 9.48376C18.1294 8.92808 17.4215 8.54966 16.6507 8.39635C15.88 8.24304 15.0811 8.32172 14.355 8.62245C13.629 8.92319 13.0084 9.43246 12.5718 10.0859C12.1353 10.7393 11.9022 11.5075 11.9022 12.2933C11.9022 13.3471 12.3208 14.3578 13.066 15.1029C13.8111 15.8481 14.8218 16.2667 15.8756 16.2667ZM15.8756 10.1067C16.3098 10.1067 16.7343 10.2354 17.0953 10.4767C17.4564 10.7179 17.7378 11.0608 17.904 11.462C18.0702 11.8632 18.1136 12.3047 18.0289 12.7306C17.9442 13.1565 17.7351 13.5477 17.428 13.8547C17.121 14.1618 16.7298 14.3709 16.3039 14.4556C15.878 14.5403 15.4365 14.4968 15.0354 14.3307C14.6342 14.1645 14.2913 13.8831 14.05 13.522C13.8088 13.161 13.68 12.7365 13.68 12.3022C13.68 11.7199 13.9113 11.1615 14.3231 10.7497C14.7348 10.338 15.2933 10.1067 15.8756 10.1067Z" fill="white"/>
<path d="M16.0889 17.5378C14.927 17.4968 13.7688 17.6915 12.6842 18.11C11.5996 18.5286 10.6109 19.1624 9.77776 19.9733L9.55554 20.2222V26.7378C9.559 26.9218 9.59883 27.1034 9.67274 27.2719C9.74666 27.4405 9.85319 27.5928 9.98621 27.7201C10.1192 27.8473 10.2761 27.947 10.4478 28.0133C10.6195 28.0797 10.8026 28.1114 10.9867 28.1067H21.1822C21.3662 28.1114 21.5494 28.0797 21.7211 28.0133C21.8928 27.947 22.0496 27.8473 22.1826 27.7201C22.3157 27.5928 22.4222 27.4405 22.4961 27.2719C22.57 27.1034 22.6099 26.9218 22.6133 26.7378V20.2044L22.3911 19.9556C21.5609 19.1443 20.5735 18.5113 19.4898 18.0956C18.406 17.6798 17.2487 17.49 16.0889 17.5378ZM20.8267 26.32H11.3155V20.9333C12.659 19.8352 14.3546 19.2605 16.0889 19.3156C17.8098 19.2577 19.4932 19.8262 20.8267 20.9156V26.32Z" fill="white"/>
<path d="M23.44 10.6667C23.1971 10.8978 22.8937 11.0554 22.565 11.1215C22.2363 11.1875 21.8956 11.1593 21.5822 11.04C21.6701 11.443 21.7148 11.8542 21.7155 12.2667C21.7259 12.468 21.7259 12.6698 21.7155 12.8711C21.8829 12.901 22.0523 12.9188 22.2222 12.9244C22.7958 12.9225 23.3608 12.7845 23.8707 12.5218C24.3806 12.2591 24.8209 11.8792 25.1555 11.4133C24.5512 11.2469 23.9736 10.9955 23.44 10.6667Z" fill="white"/>
<path d="M20.4 6.16C19.8641 6.47051 19.4148 6.91064 19.0933 7.44C19.6063 7.78118 20.0623 8.20116 20.4444 8.68445C20.5561 8.39922 20.7362 8.14584 20.9689 7.94667C20.6954 7.38116 20.5038 6.77956 20.4 6.16Z" fill="white"/>
<path d="M26.96 9.48444C29.4146 9.48444 31.4045 7.49459 31.4045 5.04C31.4045 2.5854 29.4146 0.595551 26.96 0.595551C24.5054 0.595551 22.5156 2.5854 22.5156 5.04C22.5156 7.49459 24.5054 9.48444 26.96 9.48444Z" fill="white"/>
</svg>
