<svg width="100" height="100" viewBox="0 0 100 100" fill="none" xmlns="http://www.w3.org/2000/svg">
<g clip-path="url(#clip0)">
<path d="M66.6226 74.407L66.913 73.7797C69.6474 67.8719 70.4185 62.7237 70.5141 59.0763C70.562 57.2512 70.4406 55.8008 70.3106 54.819C70.2455 54.3282 70.1784 53.9549 70.1292 53.7111C70.1047 53.5892 70.0846 53.4996 70.0716 53.444C70.0651 53.4162 70.0604 53.3968 70.0577 53.3862L70.0563 53.3803L70.056 53.3791L70.0557 53.3782L70.0554 53.3768L70.0553 53.3767L70.0296 53.2795L70.0171 53.1759L67.6803 33.7799L66.573 33.1406L61.3024 30.0977L56.0319 27.0547L54.9246 26.4154L36.9588 34.0897L36.8642 34.1301L36.7687 34.1562L36.7675 34.1565L36.7668 34.1567L36.7664 34.1568L36.7657 34.157L36.7464 34.1626C36.7254 34.1688 36.6899 34.1794 36.6406 34.1949C36.5419 34.2259 36.3881 34.2765 36.1849 34.3497C35.7783 34.4962 35.1745 34.7333 34.4195 35.0866C32.9093 35.7932 30.7968 36.9629 28.4472 38.7989L27.9004 39.2261L27.2209 39.0861C23.6595 38.3523 19.9033 39.888 17.9992 43.1851C17.4073 44.2136 17.0351 45.3536 16.9061 46.5333C16.7771 47.7132 16.8942 48.9071 17.2502 50.0394L17.6028 51.1613L16.5975 51.7715C15.3894 52.5047 14.3825 53.5267 13.6673 54.7455C11.9844 57.6641 12.2256 61.1525 13.9781 63.8083L14.1972 64.1402L14.223 64.537C14.4947 68.7119 16.5924 71.0938 18.3184 72.0903L46.4278 88.3193C48.3593 89.4344 52.0504 90.1086 56.4428 87.2862L56.9403 86.9665L57.5221 87.0723C61.0217 87.709 64.6775 86.1662 66.547 82.9297L66.6226 74.407ZM66.6226 74.407L66.9109 75.0353M66.6226 74.407L66.9109 75.0353M66.9109 75.0353C67.4843 76.2848 67.7504 77.6534 67.6871 79.0267C67.6238 80.4 67.2329 81.7382 66.5471 82.9296L66.9109 75.0353ZM55.1045 15.4319C55.1044 15.4321 55.1045 15.432 55.1045 15.4319L55.1045 15.4319ZM77.1041 28.1291C76.85 28.5648 76.3516 29.0548 75.5921 29.5206C74.8419 29.9807 73.9188 30.3662 72.9387 30.6289C70.8803 31.1807 69.0132 31.0854 68.073 30.5425C67.3639 30.1331 66.8119 29.5438 66.4115 28.8442L65.9771 28.0851L65.1025 28.0893C64.2997 28.0931 63.5137 27.9102 62.8024 27.4996C62.0934 27.0902 61.5414 26.5009 61.141 25.8012L60.7071 25.043L59.8335 25.0463C59.0273 25.0494 58.241 24.8661 57.5319 24.4567C57.0945 24.2041 56.6015 23.7042 56.133 22.9402C55.673 22.1899 55.2875 21.2666 55.0249 20.2863C54.7622 19.306 54.6344 18.3137 54.6576 17.4338C54.6811 16.5432 54.8562 15.8665 55.1064 15.4288C55.1071 15.4278 55.1078 15.4265 55.1088 15.425C55.1151 15.4148 55.1283 15.394 55.1481 15.3647C55.1881 15.3057 55.2531 15.2148 55.3418 15.1071C55.5235 14.8863 55.7792 14.626 56.0918 14.4196C56.399 14.2168 56.7342 14.0829 57.1023 14.0592C57.4592 14.0361 57.953 14.1092 58.6041 14.4851C58.7007 14.5409 58.7526 14.5761 59.0371 15.4588C59.2839 16.2242 59.7036 17.4623 61.1035 18.2706C62.2857 18.9531 63.4204 18.8339 64.122 18.7601C64.2384 18.7479 64.3428 18.7369 64.4336 18.7311C65.0757 18.6897 65.909 18.7026 67.3883 19.5566C68.8676 20.4107 69.2954 21.1259 69.5806 21.7027C69.6209 21.7843 69.6637 21.8802 69.7113 21.9871C69.9982 22.6316 70.4623 23.6739 71.6445 24.3564C73.0442 25.1645 74.3265 24.9094 75.1131 24.7405C76.0209 24.5456 76.0769 24.573 76.1725 24.6282C76.8236 25.0041 77.1338 25.3952 77.2923 25.7158C77.4558 26.0465 77.5074 26.4038 77.4854 26.7712C77.4629 27.1451 77.3653 27.4967 77.265 27.7645C77.2161 27.8951 77.1698 27.9969 77.1387 28.061C77.1232 28.0928 77.1118 28.1146 77.1062 28.1252C77.1053 28.1268 77.1046 28.1281 77.1041 28.1291Z" stroke="#31326C" stroke-opacity="0.2" stroke-width="3"/>
<path d="M72.5935 34.8845C72.3245 35.3505 71.8814 35.6904 71.3617 35.8297C70.842 35.9689 70.2883 35.896 69.8223 35.627L52.2539 25.4839C51.788 25.2149 51.448 24.7718 51.3087 24.2521C51.1695 23.7324 51.2424 23.1787 51.5114 22.7128C51.7804 22.2468 52.2235 21.9068 52.7432 21.7676C53.2629 21.6283 53.8166 21.7012 54.2825 21.9702L71.8509 32.1134C72.3169 32.3824 72.6569 32.8255 72.7961 33.3452C72.9354 33.8648 72.8625 34.4186 72.5935 34.8845Z" fill="#D6D6E2"/>
<path d="M43.0741 55.1738L43.0903 51.5458L42.9604 51.4708L41.7861 54.4648L36.3261 63.9218L32.6887 61.8218L43.2638 43.5053L46.0437 45.1103L47.9571 59.1362L47.908 62.6412L48.0639 62.7312L49.1932 59.8152L54.6982 50.2803L58.3355 52.3803L47.7605 70.6967L44.9806 69.0917L43.0741 55.1738Z" fill="#31326C" fill-opacity="0.2"/>
<line x1="35.0359" y1="45.8565" x2="61.0167" y2="60.8564" stroke="#D6D6E2" stroke-width="4"/>
<line x1="31.0359" y1="52.7846" x2="57.0167" y2="67.7846" stroke="#D6D6E2" stroke-width="4"/>
</g>
<defs>
<clipPath id="clip0">
<rect width="73.0304" height="73.0304" fill="white" transform="translate(36.5152) rotate(30)"/>
</clipPath>
</defs>
</svg>
