<svg width="32" height="32" viewBox="0 0 32 32" fill="none" xmlns="http://www.w3.org/2000/svg">
<path d="M9.85779 12.9511H10.1333C10.067 12.358 10.094 11.7581 10.2133 11.1733C9.87429 11.2383 9.52385 11.2074 9.20134 11.0843C8.87884 10.9611 8.59702 10.7506 8.38751 10.4762C8.17799 10.2018 8.04907 9.87453 8.0152 9.53099C7.98132 9.18744 8.04384 8.84125 8.19574 8.53125C8.34764 8.22125 8.58291 7.95971 8.87516 7.77596C9.16741 7.59221 9.50507 7.49353 9.85028 7.49097C10.1955 7.48842 10.5346 7.5821 10.8295 7.76151C11.1244 7.94092 11.3635 8.19896 11.52 8.50667C11.9163 8.04961 12.3811 7.65679 12.8978 7.34223C12.553 6.81543 12.0772 6.38721 11.5172 6.09951C10.9571 5.81182 10.332 5.6745 9.70288 5.70101C9.07382 5.72752 8.46242 5.91695 7.92856 6.25074C7.3947 6.58454 6.95668 7.05126 6.65739 7.60521C6.3581 8.15915 6.20781 8.78133 6.22122 9.41081C6.23464 10.0403 6.41131 10.6555 6.73392 11.1962C7.05654 11.7369 7.51405 12.1845 8.06165 12.4953C8.60925 12.806 9.22816 12.9692 9.85779 12.9689V12.9511Z" fill="white"/>
<path d="M11.5556 16.1244C11.0517 15.5535 10.6651 14.8891 10.4178 14.1689H9.85778C8.80245 14.1308 7.75055 14.3099 6.76734 14.6952C5.78414 15.0806 4.89062 15.6639 4.14223 16.4089L3.92889 16.6578V22.88H5.70667V17.3422C6.87176 16.3798 8.34728 15.8743 9.85778 15.92C10.4298 15.9204 10.9998 15.989 11.5556 16.1244Z" fill="white"/>
<path d="M27.8667 16.3733C27.1283 15.6354 26.2465 15.0566 25.2757 14.6729C24.3048 14.2891 23.2656 14.1085 22.2222 14.1422C21.9378 14.1422 21.6889 14.1422 21.4222 14.1956C21.1617 14.9366 20.7534 15.617 20.2222 16.1956C20.8721 16.0079 21.5458 15.915 22.2222 15.92C23.7221 15.8709 25.1884 16.3702 26.3467 17.3245V22.8978H28.1245V16.6222L27.8667 16.3733Z" fill="white"/>
<path d="M16.0889 17.5378C14.927 17.4968 13.7688 17.6915 12.6842 18.11C11.5996 18.5286 10.6109 19.1624 9.77776 19.9733L9.55554 20.2222V26.7378C9.559 26.9218 9.59883 27.1034 9.67274 27.2719C9.74666 27.4405 9.85319 27.5928 9.98621 27.7201C10.1192 27.8473 10.2761 27.947 10.4478 28.0133C10.6195 28.0797 10.8026 28.1114 10.9867 28.1067H21.1822C21.3662 28.1114 21.5494 28.0797 21.7211 28.0133C21.8928 27.947 22.0496 27.8473 22.1826 27.7201C22.3157 27.5928 22.4222 27.4405 22.4961 27.2719C22.57 27.1034 22.6099 26.9218 22.6133 26.7378V20.2044L22.3911 19.9556C21.5609 19.1443 20.5735 18.5113 19.4898 18.0956C18.406 17.6798 17.2487 17.49 16.0889 17.5378ZM20.8267 26.32H11.3155V20.9333C12.659 19.8352 14.3546 19.2605 16.0889 19.3156C17.8098 19.2577 19.4932 19.8262 20.8267 20.9156V26.32Z" fill="white"/>
<path d="M18.0267 12.6844C17.9539 13.0943 17.7657 13.4748 17.4842 13.7813C17.2026 14.0879 16.8394 14.3077 16.4373 14.415C16.0351 14.5223 15.6107 14.5126 15.2139 14.387C14.8171 14.2614 14.4644 14.0252 14.1971 13.7061C13.9299 13.387 13.7593 12.9982 13.7054 12.5855C13.6515 12.1728 13.7165 11.7533 13.8927 11.3762C14.069 10.9992 14.3492 10.6803 14.7004 10.4569C15.0517 10.2336 15.4593 10.1152 15.8755 10.1156C16.1836 10.1227 16.4867 10.1954 16.7644 10.3289C16.7208 9.71205 16.8533 9.0955 17.1467 8.55111C16.7251 8.39635 16.2801 8.31517 15.8311 8.31111C15.0911 8.31419 14.3667 8.52385 13.7394 8.91648C13.1122 9.30912 12.607 9.86912 12.2809 10.5334C11.9548 11.1977 11.8207 11.9398 11.8936 12.6762C11.9666 13.4126 12.2438 14.114 12.6939 14.7013C13.144 15.2887 13.7492 15.7387 14.4413 16.0006C15.1334 16.2625 15.8849 16.3259 16.6111 16.1837C17.3374 16.0415 18.0094 15.6993 18.5516 15.1957C19.0938 14.6921 19.4846 14.0471 19.68 13.3333C19.0797 13.2732 18.5076 13.0487 18.0267 12.6844Z" fill="white"/>
<path d="M24.16 0.711113L19.0756 9.52C18.9782 9.69217 18.9274 9.88675 18.9282 10.0845C18.9289 10.2823 18.9813 10.4765 19.08 10.6479C19.1787 10.8193 19.3204 10.962 19.4911 11.0619C19.6618 11.1619 19.8556 11.2156 20.0533 11.2178H30.2222C30.42 11.2156 30.6138 11.1619 30.7845 11.0619C30.9552 10.962 31.0969 10.8193 31.1956 10.6479C31.2943 10.4765 31.3466 10.2823 31.3474 10.0845C31.3482 9.88675 31.2974 9.69217 31.2 9.52L26.1244 0.711113C26.0242 0.539607 25.8807 0.397345 25.7084 0.298481C25.5361 0.199618 25.3409 0.147598 25.1422 0.147598C24.9436 0.147598 24.7483 0.199618 24.576 0.298481C24.4037 0.397345 24.2603 0.539607 24.16 0.711113Z" fill="white"/>
</svg>
