<svg width="103" height="103" viewBox="0 0 103 103" fill="none" xmlns="http://www.w3.org/2000/svg">
<g clip-path="url(#clip0)">
<path d="M42.5295 38.0164L43.0914 38.3408C43.6545 37.0532 44.4158 35.8617 45.3477 34.8097C44.5798 34.5429 43.9015 34.0674 43.3888 33.4366C42.8761 32.8058 42.5494 32.0446 42.4451 31.2385C42.3409 30.4323 42.4634 29.613 42.7988 28.8726C43.1342 28.1321 43.6692 27.4998 44.344 27.0465C45.0187 26.5931 45.8064 26.3368 46.6187 26.3062C47.431 26.2755 48.2358 26.4718 48.9427 26.8731C49.6497 27.2743 50.2309 27.8645 50.6211 28.5776C51.0113 29.2907 51.1951 30.0984 51.1519 30.9102C52.4981 30.4447 53.9084 30.1908 55.3324 30.1577C55.2495 28.6775 54.7835 27.2441 53.9801 25.9981C53.1768 24.752 52.0636 23.7359 50.7496 23.0494C49.4356 22.3628 47.9657 22.0293 46.4841 22.0814C45.0024 22.1336 43.5597 22.5696 42.2972 23.3469C41.0347 24.1241 39.9957 25.2159 39.2819 26.5154C38.5682 27.8148 38.2041 29.2774 38.2254 30.7598C38.2467 32.2422 38.6527 33.6937 39.4035 34.9721C40.1543 36.2505 41.2243 37.312 42.5086 38.0527L42.5295 38.0164Z" fill="#31326C" fill-opacity="0.2"/>
<path d="M42.2556 46.4865C41.9002 44.729 41.8942 42.9188 42.2377 41.1591L41.0958 40.4997C38.9886 39.1795 36.6326 38.3063 34.174 37.9345C31.7153 37.5627 29.2065 37.7002 26.8032 38.3384L26.0751 38.5948L18.7493 51.2833L22.3747 53.3764L28.8946 42.0836C32.4036 41.4927 36.0077 42.199 39.0341 44.0707C40.2002 44.7449 41.2817 45.5559 42.2556 46.4865Z" fill="#31326C" fill-opacity="0.2"/>
<path d="M75.2247 66.1979C74.5879 63.8237 73.471 61.6053 71.9431 59.6797C70.4151 57.7541 68.5085 56.1623 66.3411 55.0027C65.7611 54.6678 65.2536 54.3747 64.647 54.1695C63.2432 55.3738 61.6097 56.2807 59.8452 56.8352C61.3915 57.2176 62.8745 57.8214 64.2481 58.628C67.3645 60.2937 69.7668 63.0383 71.0053 66.3479L64.4435 77.7132L68.0688 79.8063L75.4573 67.009L75.2247 66.1979Z" fill="#31326C" fill-opacity="0.2"/>
<path d="M49.8361 54.7059C47.515 53.2544 44.9241 52.2878 42.2194 51.8644C39.5148 51.441 36.7524 51.5695 34.0988 52.2422L33.3526 52.4881L25.6815 65.7748C25.4718 66.1542 25.3393 66.5713 25.2916 67.0021C25.2438 67.4329 25.2818 67.8689 25.4032 68.285C25.5247 68.701 25.7272 69.089 25.9993 69.4264C26.2713 69.7639 26.6074 70.0442 26.9882 70.2512L47.7793 82.255C48.149 82.4813 48.5598 82.6322 48.988 82.699C49.4163 82.7659 49.8535 82.7473 50.2746 82.6445C50.6956 82.5416 51.0922 82.3565 51.4414 82.0997C51.7906 81.843 52.0856 81.5196 52.3093 81.1484L60.0013 67.8254L59.8412 67.0562C59.1033 64.4244 57.8352 61.9712 56.1146 59.8474C54.3941 57.7236 52.2575 55.9739 49.8361 54.7059ZM49.1578 78.1929L29.7624 66.995L36.1044 56.0103C40.1369 55.3527 44.2712 56.1771 47.743 58.3312C51.3204 60.2393 54.084 63.3806 55.5207 67.172L49.1578 78.1929Z" fill="#31326C" fill-opacity="0.2"/>
<path d="M59.5018 47.0903C58.8709 47.8403 58.0391 48.3947 57.1041 48.6884C56.169 48.982 55.1696 49.0027 54.2232 48.748C53.2768 48.4933 52.4228 47.9738 51.7614 47.2506C51.1001 46.5273 50.6589 45.6303 50.4897 44.6649C50.3205 43.6996 50.4303 42.706 50.8062 41.8009C51.1821 40.8958 51.8086 40.1168 52.6119 39.5554C53.4153 38.994 54.3622 38.6736 55.3413 38.6317C56.3205 38.5899 57.2913 38.8283 58.1396 39.3191C58.7595 39.6964 59.2918 40.2015 59.7011 40.8007C60.3383 39.4914 61.3345 38.3901 62.5736 37.6254C61.8962 36.8135 61.0843 36.124 60.1735 35.5871C58.6608 34.7221 56.9367 34.2968 55.1953 34.3589C53.4539 34.4211 51.7645 34.9683 50.3174 35.939C48.8703 36.9096 47.723 38.2651 47.0048 39.8527C46.2866 41.4403 46.026 43.1969 46.2524 44.9246C46.4788 46.6523 47.1832 48.2825 48.2862 49.6314C49.3892 50.9804 50.847 51.9945 52.4954 52.5595C54.1437 53.1245 55.9171 53.218 57.6157 52.8294C59.3143 52.4408 60.8706 51.5856 62.1093 50.3601C60.956 49.5307 60.0537 48.3993 59.5018 47.0903Z" fill="#31326C" fill-opacity="0.2"/>
<path d="M86.1059 29.8949L65.3663 41.8721C64.9651 42.1086 64.6324 42.4456 64.4011 42.8498C64.1699 43.2541 64.0479 43.7117 64.0474 44.1774C64.0469 44.6431 64.1679 45.101 64.3983 45.5057C64.6287 45.9105 64.9606 46.2482 65.3614 46.4855L86.0981 58.4579C86.504 58.6862 86.9625 58.8049 87.4282 58.802C87.8939 58.7992 88.3509 58.675 88.754 58.4417C89.1571 58.2084 89.4924 57.8741 89.7268 57.4716C89.9613 57.0692 90.0868 56.6126 90.0909 56.1469L90.1118 32.2078C90.1093 31.74 89.9843 31.281 89.7493 30.8765C89.5143 30.472 89.1774 30.1361 88.7723 29.9022C88.3672 29.6683 87.9079 29.5446 87.4401 29.5433C86.9723 29.542 86.5123 29.6633 86.1059 29.8949Z" fill="#31326C" fill-opacity="0.2"/>
</g>
<defs>
<clipPath id="clip0">
<rect width="75.3505" height="75.3505" fill="white" transform="translate(37.6752) rotate(30)"/>
</clipPath>
</defs>
</svg>
