<svg width="97" height="91" viewBox="0 0 97 91" fill="none" xmlns="http://www.w3.org/2000/svg">
<path d="M44.5902 8.23265L22.5314 46.4396L60.5564 68.3933L82.6152 30.1864L44.5902 8.23265ZM46.586 15.7527L75.1047 32.218L58.5606 60.8733L30.0419 44.4079L46.586 15.7527ZM64.6898 35.4384L48.5423 39.8064L46.2472 31.1583L40.852 32.8193L43.8456 44.0994L44.5442 46.7314L47.1728 46.0203L65.949 40.9412L64.6898 35.4384ZM11.0294 33.4311L-1.90735e-05 52.5345L4.75311 55.2788L13.0252 40.9512L17.7783 43.6954L20.5356 38.9195L11.0294 33.4311ZM68.0669 66.3617L65.3095 71.1376L70.0627 73.8818L61.7906 88.2094L66.5437 90.9536L77.5731 71.8501L68.0669 66.3617ZM15.0209 48.4712L12.2636 53.2471L59.7948 80.6893L62.5522 75.9134L15.0209 48.4712Z" fill="#31326C" fill-opacity="0.2"/>
</svg>
